<svg width="136" height="32" viewBox="0 0 136 32" fill="none" xmlns="http://www.w3.org/2000/svg">
<path fill-rule="evenodd" clip-rule="evenodd" d="M13.2971 0.687536C14.9824 -0.229179 17.0175 -0.229179 18.7028 0.687536L28.473 6.00205C30.2935 6.99226 31.4267 8.89867 31.4267 10.971V21.029C31.4267 23.1013 30.2935 25.0077 28.473 25.998L18.7028 31.3125C17.0175 32.2292 14.9824 32.2292 13.2971 31.3125L3.52687 25.998C1.70645 25.0077 0.573242 23.1013 0.573242 21.029L0.573242 10.971C0.573242 8.89867 1.70645 6.99226 3.52686 6.00205L13.2971 0.687536Z" fill="#3772FF"/>
<g filter="url(#filter0_d_3612_52108)">
<path fill-rule="evenodd" clip-rule="evenodd" d="M18.8612 21.6673C22.5431 21.6673 25.5278 18.6825 25.5278 15.0007C25.5278 11.3188 22.5431 8.33398 18.8612 8.33398C16.0446 8.33398 13.636 10.0806 12.6594 12.5499C12.1871 12.3896 11.6809 12.3027 11.1544 12.3027C8.56848 12.3027 6.47217 14.399 6.47217 16.985C6.47217 19.5709 8.56848 21.6672 11.1544 21.6672H11.1547L11.1544 21.6673H17.9896C18.0908 21.6673 18.1911 21.6591 18.2896 21.6432C18.478 21.6592 18.6686 21.6673 18.8612 21.6673ZM14.63 20.1528C14.6248 20.1485 14.6195 20.1441 14.6143 20.1398C14.6041 20.1509 14.5939 20.162 14.5837 20.173L14.63 20.1528Z" fill="url(#paint0_linear_3612_52108)"/>
</g>
<path d="M13.536 1.12676C15.0724 0.291079 16.9275 0.291079 18.4639 1.12676L28.2341 6.44127C29.8936 7.34396 30.9267 9.08185 30.9267 10.971V21.029C30.9267 22.9182 29.8936 24.656 28.2341 25.5587L18.4639 30.8732C16.9275 31.7089 15.0724 31.7089 13.536 30.8732L3.76578 25.5587C2.10628 24.656 1.07324 22.9182 1.07324 21.029V10.971C1.07324 9.08185 2.10628 7.34396 3.76578 6.44127L13.536 1.12676Z" stroke="url(#paint1_linear_3612_52108)"/>
<path d="M47.512 7.248C49.272 7.248 50.816 7.592 52.144 8.28C53.488 8.968 54.52 9.952 55.24 11.232C55.976 12.496 56.344 13.968 56.344 15.648C56.344 17.328 55.976 18.8 55.24 20.064C54.52 21.312 53.488 22.28 52.144 22.968C50.816 23.656 49.272 24 47.512 24H41.656V7.248H47.512ZM47.392 21.144C49.152 21.144 50.512 20.664 51.472 19.704C52.432 18.744 52.912 17.392 52.912 15.648C52.912 13.904 52.432 12.544 51.472 11.568C50.512 10.576 49.152 10.08 47.392 10.08H45.016V21.144H47.392ZM64.2831 24.216C63.0031 24.216 61.8511 23.936 60.8271 23.376C59.8031 22.8 58.9951 21.992 58.4031 20.952C57.8271 19.912 57.5391 18.712 57.5391 17.352C57.5391 15.992 57.8351 14.792 58.4271 13.752C59.0351 12.712 59.8591 11.912 60.8991 11.352C61.9391 10.776 63.0991 10.488 64.3791 10.488C65.6591 10.488 66.8191 10.776 67.8591 11.352C68.8991 11.912 69.7151 12.712 70.3071 13.752C70.9151 14.792 71.2191 15.992 71.2191 17.352C71.2191 18.712 70.9071 19.912 70.2831 20.952C69.6751 21.992 68.8431 22.8 67.7871 23.376C66.7471 23.936 65.5791 24.216 64.2831 24.216ZM64.2831 21.288C64.8911 21.288 65.4591 21.144 65.9871 20.856C66.5311 20.552 66.9631 20.104 67.2831 19.512C67.6031 18.92 67.7631 18.2 67.7631 17.352C67.7631 16.088 67.4271 15.12 66.7551 14.448C66.0991 13.76 65.2911 13.416 64.3311 13.416C63.3711 13.416 62.5631 13.76 61.9071 14.448C61.2671 15.12 60.9471 16.088 60.9471 17.352C60.9471 18.616 61.2591 19.592 61.8831 20.28C62.5231 20.952 63.3231 21.288 64.2831 21.288ZM77.1158 13.464V19.896C77.1158 20.344 77.2198 20.672 77.4278 20.88C77.6518 21.072 78.0198 21.168 78.5318 21.168H80.0918V24H77.9798C75.1478 24 73.7318 22.624 73.7318 19.872V13.464H72.1478V10.704H73.7318V7.416H77.1158V10.704H80.0918V13.464H77.1158ZM81.2125 15.6C81.2125 13.952 81.5805 12.48 82.3165 11.184C83.0685 9.872 84.0845 8.856 85.3645 8.136C86.6605 7.4 88.1085 7.032 89.7085 7.032C91.5805 7.032 93.2205 7.512 94.6285 8.472C96.0365 9.432 97.0205 10.76 97.5805 12.456H93.7165C93.3325 11.656 92.7885 11.056 92.0845 10.656C91.3965 10.256 90.5965 10.056 89.6845 10.056C88.7085 10.056 87.8365 10.288 87.0685 10.752C86.3165 11.2 85.7245 11.84 85.2925 12.672C84.8765 13.504 84.6685 14.48 84.6685 15.6C84.6685 16.704 84.8765 17.68 85.2925 18.528C85.7245 19.36 86.3165 20.008 87.0685 20.472C87.8365 20.92 88.7085 21.144 89.6845 21.144C90.5965 21.144 91.3965 20.944 92.0845 20.544C92.7885 20.128 93.3325 19.52 93.7165 18.72H97.5805C97.0205 20.432 96.0365 21.768 94.6285 22.728C93.2365 23.672 91.5965 24.144 89.7085 24.144C88.1085 24.144 86.6605 23.784 85.3645 23.064C84.0845 22.328 83.0685 21.312 82.3165 20.016C81.5805 18.72 81.2125 17.248 81.2125 15.6ZM105.874 24.216C104.594 24.216 103.442 23.936 102.418 23.376C101.394 22.8 100.586 21.992 99.9944 20.952C99.4184 19.912 99.1304 18.712 99.1304 17.352C99.1304 15.992 99.4264 14.792 100.018 13.752C100.626 12.712 101.45 11.912 102.49 11.352C103.53 10.776 104.69 10.488 105.97 10.488C107.25 10.488 108.41 10.776 109.45 11.352C110.49 11.912 111.306 12.712 111.898 13.752C112.506 14.792 112.81 15.992 112.81 17.352C112.81 18.712 112.498 19.912 111.874 20.952C111.266 21.992 110.434 22.8 109.378 23.376C108.338 23.936 107.17 24.216 105.874 24.216ZM105.874 21.288C106.482 21.288 107.05 21.144 107.578 20.856C108.122 20.552 108.554 20.104 108.874 19.512C109.194 18.92 109.354 18.2 109.354 17.352C109.354 16.088 109.018 15.12 108.346 14.448C107.69 13.76 106.882 13.416 105.922 13.416C104.962 13.416 104.154 13.76 103.498 14.448C102.858 15.12 102.538 16.088 102.538 17.352C102.538 18.616 102.85 19.592 103.474 20.28C104.114 20.952 104.914 21.288 105.874 21.288ZM116.499 9.12C115.907 9.12 115.411 8.936 115.011 8.568C114.627 8.184 114.435 7.712 114.435 7.152C114.435 6.592 114.627 6.128 115.011 5.76C115.411 5.376 115.907 5.184 116.499 5.184C117.091 5.184 117.579 5.376 117.963 5.76C118.363 6.128 118.563 6.592 118.563 7.152C118.563 7.712 118.363 8.184 117.963 8.568C117.579 8.936 117.091 9.12 116.499 9.12ZM118.155 10.704V24H114.795V10.704H118.155ZM128.363 10.512C129.947 10.512 131.227 11.016 132.203 12.024C133.179 13.016 133.667 14.408 133.667 16.2V24H130.307V16.656C130.307 15.6 130.043 14.792 129.515 14.232C128.987 13.656 128.267 13.368 127.355 13.368C126.427 13.368 125.691 13.656 125.147 14.232C124.619 14.792 124.355 15.6 124.355 16.656V24H120.995V10.704H124.355V12.36C124.803 11.784 125.371 11.336 126.059 11.016C126.763 10.68 127.531 10.512 128.363 10.512Z" fill="#F4F5F6"/>
<defs>
<filter id="filter0_d_3612_52108" x="2.47217" y="6.33398" width="27.0557" height="21.333" filterUnits="userSpaceOnUse" color-interpolation-filters="sRGB">
<feFlood flood-opacity="0" result="BackgroundImageFix"/>
<feColorMatrix in="SourceAlpha" type="matrix" values="0 0 0 0 0 0 0 0 0 0 0 0 0 0 0 0 0 0 127 0" result="hardAlpha"/>
<feOffset dy="2"/>
<feGaussianBlur stdDeviation="2"/>
<feColorMatrix type="matrix" values="0 0 0 0 0 0 0 0 0 0 0 0 0 0 0 0 0 0 0.15 0"/>
<feBlend mode="normal" in2="BackgroundImageFix" result="effect1_dropShadow_3612_52108"/>
<feBlend mode="normal" in="SourceGraphic" in2="effect1_dropShadow_3612_52108" result="shape"/>
</filter>
<linearGradient id="paint0_linear_3612_52108" x1="21.6875" y1="9.12549" x2="13.625" y2="21.6673" gradientUnits="userSpaceOnUse">
<stop stop-color="white"/>
<stop offset="1" stop-color="#FCFCFD" stop-opacity="0.75"/>
</linearGradient>
<linearGradient id="paint1_linear_3612_52108" x1="16" y1="0" x2="16" y2="32" gradientUnits="userSpaceOnUse">
<stop stop-color="#7EA4FF" stop-opacity="0.27"/>
<stop offset="1" stop-color="#1448C4" stop-opacity="0.42"/>
</linearGradient>
</defs>
</svg>
