<svg width="56" height="56" viewBox="0 0 56 56" fill="none" xmlns="http://www.w3.org/2000/svg">
<circle cx="28" cy="28" r="28" fill="#FF9F38"/>
<path fill-rule="evenodd" clip-rule="evenodd" d="M40.7631 23.4039C41.3221 19.7265 38.4788 17.7492 34.594 16.4299L35.8545 11.4471L32.7779 10.6927L31.5495 15.5438C30.758 15.348 29.946 15.1656 29.1352 14.9835L29.0836 14.9719L30.321 10.0892L27.2444 9.33301L25.9839 14.314L25.8494 14.2836C25.2262 14.1433 24.613 14.0051 24.0183 13.8578L24.0219 13.842L19.7774 12.7981L18.9584 16.0369C18.9584 16.0369 21.2427 16.5527 21.1946 16.5842C22.4409 16.8913 22.6652 17.7036 22.6278 18.3492L21.1928 24.025C21.2783 24.046 21.3887 24.0776 21.5133 24.125L21.1875 24.046L19.1756 31.9973C19.0225 32.3693 18.6362 32.9289 17.7638 32.7166C17.7958 32.7605 15.5276 32.1675 15.5276 32.1675L14 35.6378L18.0059 36.6221C18.436 36.7286 18.8614 36.838 19.2823 36.9462L19.2826 36.9463L19.2839 36.9466C19.5908 37.0256 19.8953 37.1039 20.1976 37.18L18.9246 42.2189L21.9994 42.9733L23.2599 37.9906C24.1002 38.2134 24.9157 38.4204 25.7133 38.6169L24.4563 43.5786L27.5329 44.333L28.8059 39.3047C34.0545 40.2837 37.9999 39.8889 39.661 35.2115C40.9999 31.4464 39.5951 29.2726 36.8337 27.8567C38.8456 27.4006 40.3589 26.097 40.7631 23.4039ZM24.8597 34.4933L24.8597 34.4933L24.8596 34.4932C24.6333 34.4343 24.4312 34.3817 24.2587 34.3395L25.9501 27.6637C26.1604 27.7156 26.4174 27.7725 26.7087 27.8369L26.7089 27.837C29.3073 28.4122 34.6254 29.5895 33.7305 33.1202C32.8599 36.5757 27.3718 35.1472 24.8597 34.4933ZM27.2307 24.7381C29.324 25.2888 33.8884 26.4897 34.683 23.3495C35.4958 20.1377 31.0587 19.1704 28.8914 18.6979C28.647 18.6447 28.4316 18.5977 28.2557 18.5545L26.7246 24.6075C26.8696 24.6431 27.0399 24.6879 27.2307 24.7381Z" fill="white"/>
</svg>
