<svg width="48" height="48" viewBox="0 0 48 48" fill="none" xmlns="http://www.w3.org/2000/svg">
<circle cx="24" cy="24" r="24" fill="#FF98E5"/>
<mask id="mask0_3243_26207" style="mask-type:luminance" maskUnits="userSpaceOnUse" x="0" y="0" width="48" height="48">
<circle cx="24" cy="24" r="24" fill="white"/>
</mask>
<g mask="url(#mask0_3243_26207)">
<circle cx="24" cy="24" r="24" fill="#3D42DF"/>
<path d="M36.9031 26.7909V29.1199L33.261 32.5235L24.0293 23.3741V16.7201L30.4667 13.9639V20.4119L36.9031 26.7909Z" fill="#B3E5FC"/>
<path d="M33.2614 32.5235L28.451 36.9866L17.5801 26.2125V13.9639L24.0298 16.7201V23.3741L33.2614 32.5235Z" fill="#4FC3F7"/>
<path d="M28.4468 36.9863L25.0771 40.1322C24.4857 40.6838 23.5633 40.6838 22.9719 40.1322L11.1426 29.1196V13.5222C11.1432 13.01 11.4037 12.5326 11.8357 12.2516C12.2677 11.9706 12.8133 11.9237 13.2877 12.1268L17.58 13.9636V26.2122L28.4468 36.9863Z" fill="#2196F3"/>
<path d="M36.9032 13.5222V26.7906L30.4668 20.4116V13.9636L34.758 12.1268C35.2324 11.9237 35.778 11.9706 36.21 12.2516C36.642 12.5326 36.9025 13.01 36.9032 13.5222Z" fill="#2196F3"/>
</g>
</svg>
