<svg width="98" height="34" viewBox="0 0 98 34" fill="none" xmlns="http://www.w3.org/2000/svg">
<path d="M1 33H3.41405C4.02897 33 4.60971 32.7171 4.9888 32.233L10.2713 25.4861C10.3403 25.398 10.4018 25.3042 10.4551 25.2058L14.0371 18.5934C14.6106 17.5347 15.9827 17.2191 16.9612 17.9208L23.8511 22.8618C24.6693 23.4485 25.796 23.3356 26.4815 22.5983L28.5305 20.3941C29.2456 19.6249 30.4338 19.5398 31.2511 20.1993L33.426 21.9539C33.9783 22.3995 34.7254 22.519 35.3892 22.268L40 20.5244L44.6096 18.2412C44.7856 18.1541 44.9478 18.0414 45.0909 17.907L49.52 13.748C50.2838 13.0307 51.4718 13.0246 52.243 13.734L55.6262 16.846C55.9497 17.1436 56.3622 17.3263 56.8 17.3659L61.75 17.8136H67.7262C68.3773 17.8136 68.9876 17.4967 69.3621 16.9641L74.405 9.79366C74.4682 9.70373 74.5388 9.61917 74.6159 9.54084L81.5925 2.45657C82.6703 1.36219 84.5282 1.84077 84.9432 3.31963L87.3042 11.7346C87.5019 12.4395 88.069 12.9799 88.7825 13.1437L91.8047 13.8372C92.6631 14.0342 93.2916 14.7696 93.3526 15.6482L94.0474 25.6712C94.1201 26.7196 94.9917 27.5329 96.0426 27.5329H97" stroke="#58BD7D" stroke-width="2" stroke-linecap="round" stroke-linejoin="round"/>
<path d="M3.4123 33.0964H1L94.9916 33.4916C96.0994 33.4962 97 32.5994 97 31.4916V29.0738C97 28.2672 96.3461 27.6133 95.5395 27.6133C94.772 27.6133 94.1354 27.0192 94.0825 26.2535L93.3522 15.689C93.2915 14.8106 92.6636 14.0753 91.8056 13.8778L88.7825 13.1821C88.069 13.0178 87.5023 12.4769 87.305 11.7718L84.943 3.32883C84.5287 1.84775 82.6675 1.36903 81.5899 2.46639L74.6157 9.56894C74.5387 9.64734 74.4683 9.73196 74.4052 9.82193L69.362 17.0139C68.9876 17.5478 68.3765 17.8657 67.7244 17.8657H61.75L56.8013 17.4168C56.3627 17.377 55.9495 17.1936 55.6259 16.8949L52.2452 13.7761C51.4734 13.0641 50.2823 13.0702 49.5179 13.7901L45.0909 17.9594C44.9477 18.0942 44.7855 18.2071 44.6094 18.2946L40 20.5843L35.3918 22.3321C34.7267 22.5844 33.9776 22.4643 33.4245 22.0169L31.2537 20.2603C30.4355 19.5983 29.2443 19.6836 28.5288 20.4555L26.483 22.6626C25.7972 23.4025 24.6676 23.5158 23.8485 22.9267L16.9642 17.9753C15.985 17.271 14.6099 17.5872 14.0367 18.6485L10.4548 25.2799C10.4017 25.3783 10.3404 25.472 10.2716 25.5601L4.98879 32.3271C4.60978 32.8126 4.02822 33.0964 3.4123 33.0964Z" fill="url(#paint0_linear_3251_76805)"/>
<defs>
<linearGradient id="paint0_linear_3251_76805" x1="49.5647" y1="-60.5726" x2="48.8742" y2="33.0955" gradientUnits="userSpaceOnUse">
<stop stop-color="#45B36B"/>
<stop offset="1" stop-color="#45B36B" stop-opacity="0"/>
</linearGradient>
</defs>
</svg>
