<svg width="33" height="32" viewBox="0 0 33 32" fill="none" xmlns="http://www.w3.org/2000/svg">
<path fill-rule="evenodd" clip-rule="evenodd" d="M13.5832 0.687536C15.2685 -0.229179 17.3036 -0.229179 18.9889 0.687536L28.7592 6.00205C30.5796 6.99226 31.7128 8.89867 31.7128 10.971V21.029C31.7128 23.1013 30.5796 25.0077 28.7592 25.998L18.9889 31.3125C17.3036 32.2292 15.2685 32.2292 13.5832 31.3125L3.813 25.998C1.99258 25.0077 0.859375 23.1013 0.859375 21.029L0.859375 10.971C0.859375 8.89867 1.99258 6.99226 3.813 6.00205L13.5832 0.687536Z" fill="#C3A634"/>
<g clip-path="url(#clip0_3251_76785)">
<path d="M16.2844 28.8002C23.3536 28.8002 29.0844 23.0694 29.0844 16.0002C29.0844 8.93095 23.3536 3.2002 16.2844 3.2002C9.21513 3.2002 3.48438 8.93095 3.48438 16.0002C3.48438 23.0694 9.21513 28.8002 16.2844 28.8002Z" fill="#C3A634"/>
<path fill-rule="evenodd" clip-rule="evenodd" d="M14.082 14.8886H17.5332V16.7174H14.082V20.5718H16.2588C17.1204 20.5718 17.8252 20.4558 18.374 20.2222C18.9228 19.9894 19.3532 19.667 19.666 19.2542C19.9859 18.8249 20.2037 18.3283 20.3028 17.8022C20.4184 17.2087 20.4747 16.6052 20.4708 16.0006C20.4747 15.396 20.4184 14.7925 20.3028 14.199C20.2038 13.6728 19.986 13.1762 19.666 12.747C19.3532 12.3342 18.922 12.0118 18.374 11.779C17.8252 11.5454 17.1204 11.4294 16.2588 11.4294H14.082V14.8894V14.8886ZM11.8692 16.7174H10.6836V14.8894H11.8692V9.60059H17.1084C18.0764 9.60059 18.914 9.76859 19.622 10.1022C20.33 10.4374 20.9076 10.8942 21.3564 11.4742C21.8044 12.0534 22.138 12.7318 22.3564 13.5086C22.5748 14.2854 22.6836 15.1166 22.6836 16.0006C22.6891 16.8424 22.5787 17.6809 22.3556 18.4926C22.138 19.2686 21.8044 19.9478 21.3556 20.527C20.9076 21.107 20.33 21.5638 19.622 21.899C18.914 22.2334 18.0756 22.4006 17.1084 22.4006H11.8692V16.7174V16.7174Z" fill="white"/>
</g>
<defs>
<clipPath id="clip0_3251_76785">
<rect width="25.6" height="25.6" fill="white" transform="translate(3.48438 3.2002)"/>
</clipPath>
</defs>
</svg>
