<svg width="63" height="24" viewBox="0 0 63 24" fill="none" xmlns="http://www.w3.org/2000/svg">
<path d="M20.9048 17V15.6676L24.4396 12.2024C24.7777 11.861 25.0594 11.5578 25.2848 11.2926C25.5102 11.0275 25.6792 10.7706 25.7919 10.522C25.9046 10.2734 25.9609 10.0083 25.9609 9.72656C25.9609 9.40507 25.888 9.12997 25.7422 8.90128C25.5964 8.66927 25.3958 8.49029 25.1406 8.36435C24.8854 8.2384 24.5954 8.17543 24.2706 8.17543C23.9358 8.17543 23.6425 8.24503 23.3906 8.38423C23.1387 8.52012 22.9432 8.71401 22.804 8.96591C22.6681 9.2178 22.6001 9.51776 22.6001 9.86577H20.8452C20.8452 9.21946 20.9927 8.65767 21.2876 8.1804C21.5826 7.70312 21.9886 7.33357 22.5057 7.07173C23.026 6.8099 23.6226 6.67898 24.2955 6.67898C24.9782 6.67898 25.5781 6.80658 26.0952 7.06179C26.6122 7.317 27.0133 7.66667 27.2983 8.1108C27.5866 8.55492 27.7308 9.06203 27.7308 9.6321C27.7308 10.0133 27.6579 10.3878 27.5121 10.7557C27.3662 11.1236 27.1094 11.5312 26.7415 11.9787C26.3769 12.4261 25.8648 12.968 25.2053 13.6044L23.4503 15.3892V15.4588H27.8849V17H20.9048ZM30.7287 17.1094C30.4271 17.1094 30.1686 17.0033 29.9531 16.7912C29.7377 16.5791 29.6316 16.3205 29.6349 16.0156C29.6316 15.7173 29.7377 15.4621 29.9531 15.25C30.1686 15.0379 30.4271 14.9318 30.7287 14.9318C31.0204 14.9318 31.2739 15.0379 31.4893 15.25C31.7081 15.4621 31.8191 15.7173 31.8224 16.0156C31.8191 16.2178 31.7661 16.4018 31.6634 16.5675C31.5639 16.7332 31.4313 16.8658 31.2656 16.9652C31.1032 17.0613 30.9242 17.1094 30.7287 17.1094ZM37.0277 17.1939C36.209 17.1939 35.5064 16.9867 34.9197 16.5724C34.3364 16.1548 33.8873 15.5533 33.5724 14.7678C33.2609 13.9789 33.1051 13.0294 33.1051 11.919C33.1084 10.8087 33.2659 9.86411 33.5774 9.08523C33.8923 8.30303 34.3414 7.70644 34.9247 7.29545C35.5114 6.88447 36.2124 6.67898 37.0277 6.67898C37.843 6.67898 38.544 6.88447 39.1307 7.29545C39.7173 7.70644 40.1664 8.30303 40.478 9.08523C40.7929 9.86742 40.9503 10.812 40.9503 11.919C40.9503 13.0327 40.7929 13.9839 40.478 14.7727C40.1664 15.5582 39.7173 16.1581 39.1307 16.5724C38.5473 16.9867 37.8464 17.1939 37.0277 17.1939ZM37.0277 15.6378C37.6641 15.6378 38.1662 15.3246 38.5341 14.6982C38.9053 14.0684 39.0909 13.142 39.0909 11.919C39.0909 11.1103 39.0064 10.4309 38.8374 9.88068C38.6683 9.33049 38.4297 8.91619 38.1214 8.63778C37.8132 8.35606 37.4486 8.2152 37.0277 8.2152C36.3946 8.2152 35.8942 8.53007 35.5263 9.1598C35.1584 9.78622 34.9728 10.706 34.9695 11.919C34.9661 12.7311 35.0473 13.4138 35.2131 13.9673C35.3821 14.5208 35.6207 14.9384 35.929 15.2202C36.2372 15.4986 36.6035 15.6378 37.0277 15.6378ZM46.1419 17.1392C45.479 17.1392 44.8857 17.0149 44.362 16.7663C43.8384 16.5144 43.4224 16.1697 43.1142 15.7322C42.8092 15.2947 42.6468 14.7943 42.627 14.2308H44.4167C44.4499 14.6484 44.6305 14.9898 44.9586 15.255C45.2868 15.5168 45.6812 15.6477 46.1419 15.6477C46.5031 15.6477 46.8246 15.5649 47.1064 15.3991C47.3881 15.2334 47.6101 15.0031 47.7725 14.7081C47.935 14.4131 48.0145 14.0767 48.0112 13.6989C48.0145 13.3144 47.9333 12.973 47.7676 12.6747C47.6019 12.3764 47.3748 12.1428 47.0865 11.9737C46.7981 11.8014 46.4667 11.7152 46.0922 11.7152C45.7872 11.7119 45.4873 11.7682 45.1923 11.8842C44.8973 12.0002 44.6636 12.1527 44.4913 12.3416L42.8258 12.0682L43.3578 6.81818H49.264V8.35938H44.8841L44.5907 11.0589H44.6504C44.8393 10.8369 45.1061 10.6529 45.4508 10.5071C45.7955 10.358 46.1734 10.2834 46.5843 10.2834C47.2008 10.2834 47.751 10.4292 48.2349 10.7209C48.7188 11.0092 49.1 11.407 49.3784 11.9141C49.6568 12.4212 49.796 13.0012 49.796 13.6541C49.796 14.3269 49.6402 14.9268 49.3287 15.4538C49.0204 15.9775 48.5912 16.3902 48.041 16.6918C47.4941 16.9901 46.8611 17.1392 46.1419 17.1392ZM56.9054 15.0909V14.554C56.9054 14.1596 56.9882 13.7966 57.1539 13.4652C57.323 13.1338 57.5682 12.867 57.8897 12.6648C58.2112 12.4626 58.6007 12.3615 59.0581 12.3615C59.5287 12.3615 59.9231 12.4626 60.2413 12.6648C60.5595 12.8636 60.7998 13.1288 60.9622 13.4602C61.1279 13.7917 61.2108 14.1562 61.2108 14.554V15.0909C61.2108 15.4853 61.1279 15.8482 60.9622 16.1797C60.7965 16.5111 60.5529 16.7779 60.2314 16.9801C59.9132 17.1823 59.5221 17.2834 59.0581 17.2834C58.594 17.2834 58.2013 17.1823 57.8798 16.9801C57.5583 16.7779 57.3147 16.5111 57.149 16.1797C56.9866 15.8482 56.9054 15.4853 56.9054 15.0909ZM58.2029 14.554V15.0909C58.2029 15.3527 58.2659 15.593 58.3919 15.8118C58.5178 16.0305 58.7399 16.1399 59.0581 16.1399C59.3796 16.1399 59.6 16.0322 59.7193 15.8168C59.8419 15.598 59.9032 15.3561 59.9032 15.0909V14.554C59.9032 14.2888 59.8452 14.0469 59.7292 13.8281C59.6132 13.6061 59.3895 13.495 59.0581 13.495C58.7465 13.495 58.5261 13.6061 58.3968 13.8281C58.2676 14.0469 58.2029 14.2888 58.2029 14.554ZM51.7299 9.2642V8.72727C51.7299 8.32955 51.8145 7.96496 51.9835 7.63352C52.1525 7.30208 52.3978 7.03693 52.7193 6.83807C53.0408 6.63589 53.4302 6.5348 53.8876 6.5348C54.3549 6.5348 54.7477 6.63589 55.0659 6.83807C55.3874 7.03693 55.6293 7.30208 55.7917 7.63352C55.9541 7.96496 56.0353 8.32955 56.0353 8.72727V9.2642C56.0353 9.66193 55.9525 10.0265 55.7868 10.358C55.6243 10.6861 55.3824 10.9496 55.0609 11.1484C54.7394 11.3473 54.3483 11.4467 53.8876 11.4467C53.4203 11.4467 53.0259 11.3473 52.7044 11.1484C52.3862 10.9496 52.1442 10.6844 51.9785 10.353C51.8128 10.0215 51.7299 9.65862 51.7299 9.2642ZM53.0375 8.72727V9.2642C53.0375 9.52936 53.0988 9.77131 53.2214 9.99006C53.3474 10.2055 53.5694 10.3132 53.8876 10.3132C54.2058 10.3132 54.4245 10.2055 54.5439 9.99006C54.6665 9.77131 54.7278 9.52936 54.7278 9.2642V8.72727C54.7278 8.46212 54.6698 8.22017 54.5538 8.00142C54.4378 7.77936 54.2157 7.66832 53.8876 7.66832C53.5727 7.66832 53.3523 7.77936 53.2264 8.00142C53.1004 8.22348 53.0375 8.46544 53.0375 8.72727ZM52.2967 17L59.2967 6.81818H60.5396L53.5396 17H52.2967Z" fill="#FF7A68"/>
<path d="M8.51114 17.722C8.36495 17.898 8.14693 18 7.91685 18C7.68677 18 7.46876 17.898 7.32257 17.722L0.636857 8.89167C0.468033 8.66869 0.440877 8.37036 0.566711 8.12106C0.692545 7.87176 0.949769 7.71429 1.23114 7.71429H14.6026C14.8839 7.71429 15.1412 7.87176 15.267 8.12106C15.3928 8.37036 15.3657 8.66869 15.1968 8.89167L8.51114 17.722Z" fill="#FF7A68"/>
</svg>
