<svg width="40" height="40" viewBox="0 0 40 40" fill="none" xmlns="http://www.w3.org/2000/svg">
<circle cx="20" cy="20" r="20" fill="#242731"/>
<circle cx="20" cy="20" r="19.5" stroke="#E4E4E4" stroke-opacity="0.1"/>
<path fill-rule="evenodd" clip-rule="evenodd" d="M22.8 18.1C22.8172 18.0314 22.8343 17.9657 22.851 17.9019C22.9314 17.5941 23 17.3314 23 17C23 15.3 21.7 14 20 14V12H18V14H17V12H15V14C14.4 14 14 14.4 14 15V19V25C14 25.6 14.4 26 15 26V28H17V26H18V28H20V26H22C24.2 26 26 24.2 26 22C26 20.1 24.6 18.4 22.8 18.1ZM21 17C21 17.6 20.6 18 20 18H16V16H20C20.6 16 21 16.4 21 17ZM16 24H22C23.1 24 24 23.1 24 22C24 20.9 23.1 20 22 20H16V24Z" fill="#355DFF"/>
</svg>
