<svg width="48" height="48" viewBox="0 0 48 48" fill="none" xmlns="http://www.w3.org/2000/svg">
<circle cx="24" cy="24" r="24" fill="#4BA2F2"/>
<path fill-rule="evenodd" clip-rule="evenodd" d="M24.3102 10.1987V10.1987C24.1566 11.3115 23.9122 13.0824 24.2647 14.9949C24.4596 16.0477 25.5288 18.272 26.7486 20.8098C28.6703 24.8078 30.9658 29.5835 30.8058 31.7816C30.602 34.042 25.4342 39.333 24.8867 38.9835C24.662 38.9222 24.8333 38.3674 25.0891 37.5389C25.5084 36.1805 26.155 34.0861 25.6563 32.2234C25.2984 30.8828 24.2609 28.7248 23.1186 26.3487C21.2854 22.5356 19.1823 18.1611 19.1851 15.703C19.1851 12.7814 23.9332 8.81881 24.3073 9.00642V9.00491C24.4711 9.03287 24.4097 9.47763 24.3102 10.1987ZM15.0165 12.2427C15.1458 12.2648 15.0975 12.6138 15.0192 13.18C14.8984 14.0528 14.7063 15.4414 14.9831 16.9436C15.1363 17.7665 15.9722 19.5056 16.9266 21.4912C18.4343 24.6279 20.2376 28.3797 20.1128 30.1067C19.9547 31.8769 15.9001 36.0301 15.4728 35.7532C15.2956 35.7044 15.4303 35.2679 15.6312 34.6164C15.9598 33.551 16.4657 31.9107 16.075 30.4517C15.7937 29.3997 14.9804 27.7078 14.0849 25.8453C12.6469 22.854 10.9972 19.4226 11 17.4944C11 15.2052 14.723 12.0945 15.015 12.2427H15.0165ZM33.899 13.1815C33.9772 12.6144 34.0255 12.2648 33.8961 12.2427C33.6056 12.0945 29.8796 15.2052 29.8796 17.4944C29.8768 19.4216 31.5254 22.8505 32.963 25.8407C33.8593 27.705 34.6737 29.3988 34.9546 30.4517C35.3456 31.9115 34.8395 33.5528 34.5109 34.6182C34.3103 35.2687 34.1759 35.7045 34.3524 35.7532C34.7812 36.0301 38.8373 31.8769 38.994 30.1067C39.1178 28.3801 37.3149 24.6294 35.8073 21.4931C34.8524 19.5067 34.016 17.7667 33.8627 16.9436C33.587 15.4423 33.7785 14.0543 33.899 13.1815Z" fill="white"/>
</svg>
