<svg width="114" height="26" viewBox="0 0 114 26" fill="none" xmlns="http://www.w3.org/2000/svg">
<path d="M1 9.47793C1 9.47793 5.96922 11.4751 11.3299 9.47793C16.6906 7.48079 17.4308 11.9548 19.1511 11.9548C20.8713 11.9548 21.0902 -0.642934 24.7012 1.18042C28.3121 3.00377 33.4757 12.4785 37.6414 9.47793C41.8071 6.47742 45.8839 3.4769 48.7368 6.47742C51.5896 9.47793 67.7559 11.7744 71.0242 6.47742C74.2924 1.18042 77.4006 25 83.3532 25C89.3058 25 90.3553 12.8784 95.0687 15.043C99.7821 17.2076 97.3969 20.4092 102.084 20.4092C106.771 20.4092 113 9.47793 113 9.47793" stroke="#FF7A68" stroke-width="2" stroke-linecap="round"/>
</svg>
